# xmcd
#
# Track frame offsets:
#	150
#	17860
#	33925
#	46900
#	61375
#	75340
#	91575
#	107217
#	119020
#	136715
#	152750
#	165737
#	180152
#	194122
#	210330
#	225932
#
# Disc length: 3172 seconds
#
# Revision: 0
# Processed by: cddbd v1.5.1PL2 Copyright (c) Steve Scherf et al.
# Submitted via: audiograbber 1.83.01
#
DISCID=bf0c6210
DTITLE=Sound Choice - 2025
DYEAR=1900
DGENRE=Karaoke Country
TTITLE0=Brooks, Garth - Friends In Low Places
TTITLE1=Riley, Jeannie C - Harper Valley PTA
TTITLE2=West, Shelly - Jose Cuervo
TTITLE3=Traditional - Rocky Top
TTITLE4=Kentucky Headhunters - Dumas Walker
TTITLE5=Cyrus, Billy Ray - Achey Breaky Heart
TTITLE6=Brooks and Dunn - Boot Scootin Boogie
TTITLE7=McDaniel, Mel - Louisiana Saturday Night
TTITLE8=Brooks, Garth - Friends In Low Places (Vocal)
TTITLE9=Riley, Jeannie C - Harper Valley PTA (Vocal)
TTITLE10=West, Shelly - Jose Cuervo (Vocal)
TTITLE11=Traditional - Rocky Top (Vocal)
TTITLE12=Kentucky Headhunters - Dumas Walker (Vocal)
TTITLE13=Cyrus, Billy Ray - Achey Breaky Heart (Vocal)
TTITLE14=Brooks and Dunn - Boot Scootin Boogie (Vocal)
TTITLE15=McDaniel, Mel - Louisiana Saturday Night (Vocal)
EXTD=
EXTT0=
EXTT1=
EXTT2=
EXTT3=
EXTT4=
EXTT5=
EXTT6=
EXTT7=
EXTT8=
EXTT9=
EXTT10=
EXTT11=
EXTT12=
EXTT13=
EXTT14=
EXTT15=
PLAYORDER=
